<?xml version="1.0" encoding="UTF-8" standalone="no"?>
<!DOCTYPE svg PUBLIC "-//W3C//DTD SVG 1.1//EN"
 "http://www.w3.org/Graphics/SVG/1.1/DTD/svg11.dtd">
<!-- Generated by graphviz version 2.43.0 (0)
 -->
<!-- Title: G Pages: 1 -->
<svg width="208pt" height="139pt"
 viewBox="0.00 0.00 207.53 139.00" xmlns="http://www.w3.org/2000/svg" xmlns:xlink="http://www.w3.org/1999/xlink">
<g id="graph0" class="graph" transform="scale(1 1) rotate(0) translate(4 135)">
<title>G</title>
<polygon fill="white" stroke="transparent" points="-4,4 -4,-135 203.53,-135 203.53,4 -4,4"/>
<text text-anchor="middle" x="99.77" y="-6.8" font-family="Times,serif" font-size="14.00">B</text>
<!-- app -->
<g id="node1" class="node">
<title>app</title>
<polygon fill="firebrick" stroke="black" points="86.06,-131 -0.02,-131 -0.02,-95 86.06,-95 86.06,-131"/>
<text text-anchor="middle" x="43.02" y="-108.8" font-family="Helvetica,sans-Serif" font-size="14.00">app (down)</text>
</g>
<!-- db -->
<g id="node2" class="node">
<title>db</title>
<path fill="lightblue" stroke="black" d="M70.02,-54.73C70.02,-56.53 57.92,-58 43.02,-58 28.12,-58 16.02,-56.53 16.02,-54.73 16.02,-54.73 16.02,-25.27 16.02,-25.27 16.02,-23.47 28.12,-22 43.02,-22 57.92,-22 70.02,-23.47 70.02,-25.27 70.02,-25.27 70.02,-54.73 70.02,-54.73"/>
<path fill="none" stroke="black" d="M70.02,-54.73C70.02,-52.92 57.92,-51.45 43.02,-51.45 28.12,-51.45 16.02,-52.92 16.02,-54.73"/>
<text text-anchor="middle" x="43.02" y="-35.8" font-family="Helvetica,sans-Serif" font-size="14.00">db</text>
</g>
<!-- app&#45;&gt;db -->
<!-- newdb -->
<g id="node3" class="node">
<title>newdb</title>
<path fill="lightgreen" stroke="black" d="M199.54,-54.73C199.54,-56.53 184.96,-58 167.02,-58 149.08,-58 134.5,-56.53 134.5,-54.73 134.5,-54.73 134.5,-25.27 134.5,-25.27 134.5,-23.47 149.08,-22 167.02,-22 184.96,-22 199.54,-23.47 199.54,-25.27 199.54,-25.27 199.54,-54.73 199.54,-54.73"/>
<path fill="none" stroke="black" d="M199.54,-54.73C199.54,-52.92 184.96,-51.45 167.02,-51.45 149.08,-51.45 134.5,-52.92 134.5,-54.73"/>
<text text-anchor="middle" x="167.02" y="-35.8" font-family="Helvetica,sans-Serif" font-size="14.00">new DB</text>
</g>
<!-- db&#45;&gt;newdb -->
<g id="edge1" class="edge">
<title>db&#45;&gt;newdb</title>
<path fill="none" stroke="black" d="M70.23,-40C85.97,-40 106.12,-40 123.96,-40"/>
<polygon fill="black" stroke="black" points="124.14,-43.5 134.14,-40 124.14,-36.5 124.14,-43.5"/>
<text text-anchor="middle" x="102.27" y="-45.8" font-family="Helvetica,sans-Serif" font-size="14.00"> restore</text>
</g>
</g>
</svg>
