<?xml version="1.0" encoding="UTF-8" standalone="no"?>
<!DOCTYPE svg PUBLIC "-//W3C//DTD SVG 1.1//EN"
 "http://www.w3.org/Graphics/SVG/1.1/DTD/svg11.dtd">
<!-- Generated by graphviz version 2.43.0 (0)
 -->
<!-- Title: G Pages: 1 -->
<svg width="154pt" height="138pt"
 viewBox="0.00 0.00 154.24 138.00" xmlns="http://www.w3.org/2000/svg" xmlns:xlink="http://www.w3.org/1999/xlink">
<g id="graph0" class="graph" transform="scale(1 1) rotate(0) translate(4 134)">
<title>G</title>
<polygon fill="white" stroke="transparent" points="-4,4 -4,-134 150.24,-134 150.24,4 -4,4"/>
<text text-anchor="middle" x="73.12" y="-6.8" font-family="Times,serif" font-size="14.00">C</text>
<!-- app -->
<g id="node1" class="node">
<title>app</title>
<polygon fill="yellow" stroke="black" points="99.73,-130 45.73,-130 45.73,-94 99.73,-94 99.73,-130"/>
<text text-anchor="middle" x="72.73" y="-107.8" font-family="Helvetica,sans-Serif" font-size="14.00">app</text>
</g>
<!-- db -->
<g id="node2" class="node">
<title>db</title>
<path fill="lightgray" stroke="black" d="M63.7,-54.73C63.7,-56.53 49.38,-58 31.73,-58 14.09,-58 -0.24,-56.53 -0.24,-54.73 -0.24,-54.73 -0.24,-25.27 -0.24,-25.27 -0.24,-23.47 14.09,-22 31.73,-22 49.38,-22 63.7,-23.47 63.7,-25.27 63.7,-25.27 63.7,-54.73 63.7,-54.73"/>
<path fill="none" stroke="black" d="M63.7,-54.73C63.7,-52.92 49.38,-51.45 31.73,-51.45 14.09,-51.45 -0.24,-52.92 -0.24,-54.73"/>
<text text-anchor="middle" x="31.73" y="-35.8" font-family="Helvetica,sans-Serif" font-size="14.00">db (old)</text>
</g>
<!-- app&#45;&gt;db -->
<!-- newdb -->
<g id="node3" class="node">
<title>newdb</title>
<path fill="lightgreen" stroke="black" d="M146.25,-54.73C146.25,-56.53 131.68,-58 113.73,-58 95.79,-58 81.21,-56.53 81.21,-54.73 81.21,-54.73 81.21,-25.27 81.21,-25.27 81.21,-23.47 95.79,-22 113.73,-22 131.68,-22 146.25,-23.47 146.25,-25.27 146.25,-25.27 146.25,-54.73 146.25,-54.73"/>
<path fill="none" stroke="black" d="M146.25,-54.73C146.25,-52.92 131.68,-51.45 113.73,-51.45 95.79,-51.45 81.21,-52.92 81.21,-54.73"/>
<text text-anchor="middle" x="113.73" y="-35.8" font-family="Helvetica,sans-Serif" font-size="14.00">new DB</text>
</g>
<!-- app&#45;&gt;newdb -->
<g id="edge2" class="edge">
<title>app&#45;&gt;newdb</title>
<path fill="none" stroke="black" d="M82.87,-93.7C87.59,-85.64 93.3,-75.89 98.52,-66.98"/>
<polygon fill="black" stroke="black" points="101.68,-68.5 103.72,-58.1 95.64,-64.96 101.68,-68.5"/>
</g>
</g>
</svg>
