<?xml version="1.0" encoding="UTF-8" standalone="no"?>
<!DOCTYPE svg PUBLIC "-//W3C//DTD SVG 1.1//EN"
 "http://www.w3.org/Graphics/SVG/1.1/DTD/svg11.dtd">
<!-- Generated by graphviz version 2.43.0 (0)
 -->
<!-- Title: G Pages: 1 -->
<svg width="192pt" height="139pt"
 viewBox="0.00 0.00 191.51 139.00" xmlns="http://www.w3.org/2000/svg" xmlns:xlink="http://www.w3.org/1999/xlink">
<g id="graph0" class="graph" transform="scale(1 1) rotate(0) translate(4 135)">
<title>G</title>
<polygon fill="white" stroke="transparent" points="-4,4 -4,-135 187.51,-135 187.51,4 -4,4"/>
<text text-anchor="middle" x="91.76" y="-6.8" font-family="Times,serif" font-size="14.00">A</text>
<!-- app -->
<g id="node1" class="node">
<title>app</title>
<polygon fill="yellow" stroke="black" points="54,-131 0,-131 0,-95 54,-95 54,-131"/>
<text text-anchor="middle" x="27" y="-108.8" font-family="Helvetica,sans-Serif" font-size="14.00">app</text>
</g>
<!-- db -->
<g id="node2" class="node">
<title>db</title>
<path fill="lightblue" stroke="black" d="M54,-54.73C54,-56.53 41.9,-58 27,-58 12.1,-58 0,-56.53 0,-54.73 0,-54.73 0,-25.27 0,-25.27 0,-23.47 12.1,-22 27,-22 41.9,-22 54,-23.47 54,-25.27 54,-25.27 54,-54.73 54,-54.73"/>
<path fill="none" stroke="black" d="M54,-54.73C54,-52.92 41.9,-51.45 27,-51.45 12.1,-51.45 0,-52.92 0,-54.73"/>
<text text-anchor="middle" x="27" y="-35.8" font-family="Helvetica,sans-Serif" font-size="14.00">db</text>
</g>
<!-- app&#45;&gt;db -->
<g id="edge1" class="edge">
<title>app&#45;&gt;db</title>
<path fill="none" stroke="black" d="M27,-94.81C27,-86.79 27,-77.05 27,-68.07"/>
<polygon fill="black" stroke="black" points="30.5,-68.03 27,-58.03 23.5,-68.03 30.5,-68.03"/>
</g>
<!-- newdb -->
<g id="node3" class="node">
<title>newdb</title>
<path fill="lightgreen" stroke="black" d="M183.52,-54.73C183.52,-56.53 168.94,-58 151,-58 133.06,-58 118.48,-56.53 118.48,-54.73 118.48,-54.73 118.48,-25.27 118.48,-25.27 118.48,-23.47 133.06,-22 151,-22 168.94,-22 183.52,-23.47 183.52,-25.27 183.52,-25.27 183.52,-54.73 183.52,-54.73"/>
<path fill="none" stroke="black" d="M183.52,-54.73C183.52,-52.92 168.94,-51.45 151,-51.45 133.06,-51.45 118.48,-52.92 118.48,-54.73"/>
<text text-anchor="middle" x="151" y="-35.8" font-family="Helvetica,sans-Serif" font-size="14.00">new DB</text>
</g>
<!-- db&#45;&gt;newdb -->
<g id="edge2" class="edge">
<title>db&#45;&gt;newdb</title>
<path fill="none" stroke="black" d="M54.21,-40C69.95,-40 90.1,-40 107.94,-40"/>
<polygon fill="black" stroke="black" points="108.12,-43.5 118.12,-40 108.12,-36.5 108.12,-43.5"/>
<text text-anchor="middle" x="86.24" y="-45.8" font-family="Helvetica,sans-Serif" font-size="14.00"> restore</text>
</g>
</g>
</svg>
