<?xml version="1.0" encoding="UTF-8" standalone="no"?>
<!DOCTYPE svg PUBLIC "-//W3C//DTD SVG 1.1//EN"
 "http://www.w3.org/Graphics/SVG/1.1/DTD/svg11.dtd">
<!-- Generated by graphviz version 2.43.0 (0)
 -->
<!-- Title: G Pages: 1 -->
<svg width="146pt" height="138pt"
 viewBox="0.00 0.00 145.51 138.00" xmlns="http://www.w3.org/2000/svg" xmlns:xlink="http://www.w3.org/1999/xlink">
<g id="graph0" class="graph" transform="scale(1 1) rotate(0) translate(4 134)">
<title>G</title>
<polygon fill="white" stroke="transparent" points="-4,4 -4,-134 141.51,-134 141.51,4 -4,4"/>
<text text-anchor="middle" x="68.76" y="-6.8" font-family="Times,serif" font-size="14.00">B</text>
<!-- app -->
<g id="node1" class="node">
<title>app</title>
<polygon fill="yellow" stroke="black" points="54,-130 0,-130 0,-94 54,-94 54,-130"/>
<text text-anchor="middle" x="27" y="-107.8" font-family="Helvetica,sans-Serif" font-size="14.00">app</text>
</g>
<!-- db -->
<g id="node2" class="node">
<title>db</title>
<path fill="lightblue" stroke="black" d="M54,-54.73C54,-56.53 41.9,-58 27,-58 12.1,-58 0,-56.53 0,-54.73 0,-54.73 0,-25.27 0,-25.27 0,-23.47 12.1,-22 27,-22 41.9,-22 54,-23.47 54,-25.27 54,-25.27 54,-54.73 54,-54.73"/>
<path fill="none" stroke="black" d="M54,-54.73C54,-52.92 41.9,-51.45 27,-51.45 12.1,-51.45 0,-52.92 0,-54.73"/>
<text text-anchor="middle" x="27" y="-35.8" font-family="Helvetica,sans-Serif" font-size="14.00">db</text>
</g>
<!-- app&#45;&gt;db -->
<g id="edge1" class="edge">
<title>app&#45;&gt;db</title>
<path fill="none" stroke="black" d="M27,-93.7C27,-85.98 27,-76.71 27,-68.11"/>
<polygon fill="black" stroke="black" points="30.5,-68.1 27,-58.1 23.5,-68.1 30.5,-68.1"/>
</g>
<!-- newdb -->
<g id="node3" class="node">
<title>newdb</title>
<path fill="lightgreen" stroke="black" d="M137.52,-54.73C137.52,-56.53 122.94,-58 105,-58 87.06,-58 72.48,-56.53 72.48,-54.73 72.48,-54.73 72.48,-25.27 72.48,-25.27 72.48,-23.47 87.06,-22 105,-22 122.94,-22 137.52,-23.47 137.52,-25.27 137.52,-25.27 137.52,-54.73 137.52,-54.73"/>
<path fill="none" stroke="black" d="M137.52,-54.73C137.52,-52.92 122.94,-51.45 105,-51.45 87.06,-51.45 72.48,-52.92 72.48,-54.73"/>
<text text-anchor="middle" x="105" y="-35.8" font-family="Helvetica,sans-Serif" font-size="14.00">new DB</text>
</g>
<!-- app2 -->
<g id="node4" class="node">
<title>app2</title>
<polygon fill="yellow" stroke="black" points="134.03,-130 75.97,-130 75.97,-94 134.03,-94 134.03,-130"/>
<text text-anchor="middle" x="105" y="-107.8" font-family="Helvetica,sans-Serif" font-size="14.00">app v2</text>
</g>
<!-- app2&#45;&gt;newdb -->
<g id="edge2" class="edge">
<title>app2&#45;&gt;newdb</title>
<path fill="none" stroke="black" d="M105,-93.7C105,-85.98 105,-76.71 105,-68.11"/>
<polygon fill="black" stroke="black" points="108.5,-68.1 105,-58.1 101.5,-68.1 108.5,-68.1"/>
</g>
</g>
</svg>
