<?xml version="1.0" encoding="UTF-8" standalone="no"?>
<!DOCTYPE svg PUBLIC "-//W3C//DTD SVG 1.1//EN"
 "http://www.w3.org/Graphics/SVG/1.1/DTD/svg11.dtd">
<!-- Generated by graphviz version 2.43.0 (0)
 -->
<!-- Title: G Pages: 1 -->
<svg width="159pt" height="138pt"
 viewBox="0.00 0.00 159.14 138.00" xmlns="http://www.w3.org/2000/svg" xmlns:xlink="http://www.w3.org/1999/xlink">
<g id="graph0" class="graph" transform="scale(1 1) rotate(0) translate(4 134)">
<title>G</title>
<polygon fill="white" stroke="transparent" points="-4,4 -4,-134 155.14,-134 155.14,4 -4,4"/>
<text text-anchor="middle" x="75.57" y="-6.8" font-family="Times,serif" font-size="14.00">C</text>
<!-- app -->
<g id="node1" class="node">
<title>app</title>
<polygon fill="lightgray" stroke="black" points="71.38,-130 -0.13,-130 -0.13,-94 71.38,-94 71.38,-130"/>
<text text-anchor="middle" x="35.63" y="-107.8" font-family="Helvetica,sans-Serif" font-size="14.00">app (old)</text>
</g>
<!-- db -->
<g id="node2" class="node">
<title>db</title>
<path fill="lightgray" stroke="black" d="M67.6,-54.73C67.6,-56.53 53.27,-58 35.63,-58 17.99,-58 3.66,-56.53 3.66,-54.73 3.66,-54.73 3.66,-25.27 3.66,-25.27 3.66,-23.47 17.99,-22 35.63,-22 53.27,-22 67.6,-23.47 67.6,-25.27 67.6,-25.27 67.6,-54.73 67.6,-54.73"/>
<path fill="none" stroke="black" d="M67.6,-54.73C67.6,-52.92 53.27,-51.45 35.63,-51.45 17.99,-51.45 3.66,-52.92 3.66,-54.73"/>
<text text-anchor="middle" x="35.63" y="-35.8" font-family="Helvetica,sans-Serif" font-size="14.00">db (old)</text>
</g>
<!-- app&#45;&gt;db -->
<g id="edge1" class="edge">
<title>app&#45;&gt;db</title>
<path fill="none" stroke="black" d="M35.63,-93.7C35.63,-85.98 35.63,-76.71 35.63,-68.11"/>
<polygon fill="black" stroke="black" points="39.13,-68.1 35.63,-58.1 32.13,-68.1 39.13,-68.1"/>
</g>
<!-- newdb -->
<g id="node3" class="node">
<title>newdb</title>
<path fill="lightgreen" stroke="black" d="M151.15,-54.73C151.15,-56.53 136.57,-58 118.63,-58 100.68,-58 86.11,-56.53 86.11,-54.73 86.11,-54.73 86.11,-25.27 86.11,-25.27 86.11,-23.47 100.68,-22 118.63,-22 136.57,-22 151.15,-23.47 151.15,-25.27 151.15,-25.27 151.15,-54.73 151.15,-54.73"/>
<path fill="none" stroke="black" d="M151.15,-54.73C151.15,-52.92 136.57,-51.45 118.63,-51.45 100.68,-51.45 86.11,-52.92 86.11,-54.73"/>
<text text-anchor="middle" x="118.63" y="-35.8" font-family="Helvetica,sans-Serif" font-size="14.00">new DB</text>
</g>
<!-- app2 -->
<g id="node4" class="node">
<title>app2</title>
<polygon fill="yellow" stroke="black" points="147.66,-130 89.59,-130 89.59,-94 147.66,-94 147.66,-130"/>
<text text-anchor="middle" x="118.63" y="-107.8" font-family="Helvetica,sans-Serif" font-size="14.00">app v2</text>
</g>
<!-- app2&#45;&gt;newdb -->
<g id="edge2" class="edge">
<title>app2&#45;&gt;newdb</title>
<path fill="none" stroke="black" d="M118.63,-93.7C118.63,-85.98 118.63,-76.71 118.63,-68.11"/>
<polygon fill="black" stroke="black" points="122.13,-68.1 118.63,-58.1 115.13,-68.1 122.13,-68.1"/>
</g>
</g>
</svg>
