<?xml version="1.0" encoding="UTF-8" standalone="no"?>
<!DOCTYPE svg PUBLIC "-//W3C//DTD SVG 1.1//EN"
 "http://www.w3.org/Graphics/SVG/1.1/DTD/svg11.dtd">
<!-- Generated by graphviz version 2.43.0 (0)
 -->
<!-- Title: G Pages: 1 -->
<svg width="156pt" height="152pt"
 viewBox="0.00 0.00 156.34 151.50" xmlns="http://www.w3.org/2000/svg" xmlns:xlink="http://www.w3.org/1999/xlink">
<g id="graph0" class="graph" transform="scale(1 1) rotate(0) translate(4 147.5)">
<title>G</title>
<polygon fill="white" stroke="transparent" points="-4,4 -4,-147.5 152.34,-147.5 152.34,4 -4,4"/>
<text text-anchor="middle" x="74.17" y="-6.8" font-family="Times,serif" font-size="14.00">A</text>
<!-- app -->
<g id="node1" class="node">
<title>app</title>
<polygon fill="yellow" stroke="black" points="54,-143.5 0,-143.5 0,-107.5 54,-107.5 54,-143.5"/>
<text text-anchor="middle" x="27" y="-121.3" font-family="Helvetica,sans-Serif" font-size="14.00">app</text>
</g>
<!-- db -->
<g id="node3" class="node">
<title>db</title>
<path fill="lightblue" stroke="black" d="M54,-61.48C54,-63.28 41.9,-64.75 27,-64.75 12.1,-64.75 0,-63.28 0,-61.48 0,-61.48 0,-32.02 0,-32.02 0,-30.22 12.1,-28.75 27,-28.75 41.9,-28.75 54,-30.22 54,-32.02 54,-32.02 54,-61.48 54,-61.48"/>
<path fill="none" stroke="black" d="M54,-61.48C54,-59.67 41.9,-58.2 27,-58.2 12.1,-58.2 0,-59.67 0,-61.48"/>
<text text-anchor="middle" x="27" y="-42.55" font-family="Helvetica,sans-Serif" font-size="14.00">db</text>
</g>
<!-- app&#45;&gt;db -->
<g id="edge1" class="edge">
<title>app&#45;&gt;db</title>
<path fill="none" stroke="black" d="M27,-107.47C27,-97.99 27,-85.98 27,-75.21"/>
<polygon fill="black" stroke="black" points="30.5,-75 27,-65 23.5,-75 30.5,-75"/>
</g>
<!-- app2 -->
<g id="node2" class="node">
<title>app2</title>
<polygon fill="yellow" stroke="black" points="139.03,-143.5 80.97,-143.5 80.97,-107.5 139.03,-107.5 139.03,-143.5"/>
<text text-anchor="middle" x="110" y="-121.3" font-family="Helvetica,sans-Serif" font-size="14.00">app v2</text>
</g>
<!-- newdb -->
<g id="node4" class="node">
<title>newdb</title>
<path fill="lightgreen" stroke="black" d="M148.18,-66.8C148.18,-69.26 131.07,-71.25 110,-71.25 88.93,-71.25 71.82,-69.26 71.82,-66.8 71.82,-66.8 71.82,-26.7 71.82,-26.7 71.82,-24.24 88.93,-22.25 110,-22.25 131.07,-22.25 148.18,-24.24 148.18,-26.7 148.18,-26.7 148.18,-66.8 148.18,-66.8"/>
<path fill="none" stroke="black" d="M148.18,-66.8C148.18,-64.34 131.07,-62.34 110,-62.34 88.93,-62.34 71.82,-64.34 71.82,-66.8"/>
<text text-anchor="middle" x="110" y="-49.55" font-family="Helvetica,sans-Serif" font-size="14.00">new DB</text>
<text text-anchor="middle" x="110" y="-35.55" font-family="Helvetica,sans-Serif" font-size="14.00">(restored)</text>
</g>
<!-- app2&#45;&gt;newdb -->
<g id="edge2" class="edge">
<title>app2&#45;&gt;newdb</title>
<path fill="none" stroke="black" d="M110,-107.47C110,-99.85 110,-90.59 110,-81.65"/>
<polygon fill="black" stroke="black" points="113.5,-81.43 110,-71.43 106.5,-81.43 113.5,-81.43"/>
</g>
</g>
</svg>
