<?xml version="1.0" encoding="UTF-8" standalone="no"?>
<!DOCTYPE svg PUBLIC "-//W3C//DTD SVG 1.1//EN"
 "http://www.w3.org/Graphics/SVG/1.1/DTD/svg11.dtd">
<!-- Generated by graphviz version 2.43.0 (0)
 -->
<!-- Title: G Pages: 1 -->
<svg width="239pt" height="166pt"
 viewBox="0.00 0.00 239.02 165.50" xmlns="http://www.w3.org/2000/svg" xmlns:xlink="http://www.w3.org/1999/xlink">
<g id="graph0" class="graph" transform="scale(1 1) rotate(0) translate(4 161.5)">
<title>G</title>
<polygon fill="white" stroke="transparent" points="-4,4 -4,-161.5 235.02,-161.5 235.02,4 -4,4"/>
<text text-anchor="middle" x="115.51" y="-6.8" font-family="Times,serif" font-size="14.00">B</text>
<!-- app -->
<g id="node1" class="node">
<title>app</title>
<polygon fill="yellow" stroke="black" points="54,-157.5 0,-157.5 0,-121.5 54,-121.5 54,-157.5"/>
<text text-anchor="middle" x="27" y="-135.3" font-family="Helvetica,sans-Serif" font-size="14.00">app</text>
</g>
<!-- db -->
<g id="node3" class="node">
<title>db</title>
<path fill="lightblue" stroke="black" d="M76,-61.48C76,-63.28 63.9,-64.75 49,-64.75 34.1,-64.75 22,-63.28 22,-61.48 22,-61.48 22,-32.02 22,-32.02 22,-30.22 34.1,-28.75 49,-28.75 63.9,-28.75 76,-30.22 76,-32.02 76,-32.02 76,-61.48 76,-61.48"/>
<path fill="none" stroke="black" d="M76,-61.48C76,-59.67 63.9,-58.2 49,-58.2 34.1,-58.2 22,-59.67 22,-61.48"/>
<text text-anchor="middle" x="49" y="-42.55" font-family="Helvetica,sans-Serif" font-size="14.00">db</text>
</g>
<!-- app&#45;&gt;db -->
<g id="edge1" class="edge">
<title>app&#45;&gt;db</title>
<path fill="none" stroke="black" d="M31.14,-121.43C34.31,-108.33 38.76,-89.99 42.42,-74.89"/>
<polygon fill="black" stroke="black" points="45.85,-75.59 44.81,-65.05 39.05,-73.95 45.85,-75.59"/>
</g>
<!-- app2 -->
<g id="node2" class="node">
<title>app2</title>
<polygon fill="yellow" stroke="black" points="231.03,-157.5 172.97,-157.5 172.97,-121.5 231.03,-121.5 231.03,-157.5"/>
<text text-anchor="middle" x="202" y="-135.3" font-family="Helvetica,sans-Serif" font-size="14.00">app v2</text>
</g>
<!-- newdb -->
<g id="node4" class="node">
<title>newdb</title>
<path fill="lightgreen" stroke="black" d="M193.6,-66.8C193.6,-69.26 174.06,-71.25 150,-71.25 125.94,-71.25 106.4,-69.26 106.4,-66.8 106.4,-66.8 106.4,-26.7 106.4,-26.7 106.4,-24.24 125.94,-22.25 150,-22.25 174.06,-22.25 193.6,-24.24 193.6,-26.7 193.6,-26.7 193.6,-66.8 193.6,-66.8"/>
<path fill="none" stroke="black" d="M193.6,-66.8C193.6,-64.34 174.06,-62.34 150,-62.34 125.94,-62.34 106.4,-64.34 106.4,-66.8"/>
<text text-anchor="middle" x="150" y="-49.55" font-family="Helvetica,sans-Serif" font-size="14.00">new DB</text>
<text text-anchor="middle" x="150" y="-35.55" font-family="Helvetica,sans-Serif" font-size="14.00">(up to date)</text>
</g>
<!-- app2&#45;&gt;newdb -->
<g id="edge2" class="edge">
<title>app2&#45;&gt;newdb</title>
<path fill="none" stroke="black" d="M197.63,-121.06C194.8,-111.39 190.6,-99.37 185,-89.5 183.06,-86.08 180.83,-82.67 178.45,-79.36"/>
<polygon fill="black" stroke="black" points="181.18,-77.17 172.32,-71.37 175.63,-81.43 181.18,-77.17"/>
</g>
<!-- script -->
<g id="node5" class="node">
<title>script</title>
<ellipse fill="none" stroke="black" cx="114" cy="-139.5" rx="31.47" ry="18"/>
<text text-anchor="middle" x="114" y="-135.3" font-family="Helvetica,sans-Serif" font-size="14.00">script</text>
</g>
<!-- db&#45;&gt;script -->
<g id="edge3" class="edge">
<title>db&#45;&gt;script</title>
<path fill="none" stroke="black" d="M52.24,-64.8C55.08,-76.51 60.1,-91.95 68.44,-103.5 72.86,-109.61 78.64,-115.17 84.6,-119.96"/>
<polygon fill="black" stroke="black" points="82.6,-122.85 92.72,-126.01 86.79,-117.23 82.6,-122.85"/>
<text text-anchor="middle" x="97.28" y="-92.3" font-family="Helvetica,sans-Serif" font-size="14.00"> fetch diff</text>
</g>
<!-- script&#45;&gt;newdb -->
<g id="edge4" class="edge">
<title>script&#45;&gt;newdb</title>
<path fill="none" stroke="black" d="M120.6,-121.86C125.15,-110.38 131.36,-94.74 136.89,-80.79"/>
<polygon fill="black" stroke="black" points="140.16,-82.05 140.59,-71.47 133.65,-79.47 140.16,-82.05"/>
<text text-anchor="middle" x="157.34" y="-92.3" font-family="Helvetica,sans-Serif" font-size="14.00"> backfill</text>
</g>
</g>
</svg>
