<?xml version="1.0" encoding="UTF-8" standalone="no"?>
<!DOCTYPE svg PUBLIC "-//W3C//DTD SVG 1.1//EN"
 "http://www.w3.org/Graphics/SVG/1.1/DTD/svg11.dtd">
<!-- Generated by graphviz version 2.43.0 (0)
 -->
<!-- Title: G Pages: 1 -->
<svg width="239pt" height="152pt"
 viewBox="0.00 0.00 238.80 152.00" xmlns="http://www.w3.org/2000/svg" xmlns:xlink="http://www.w3.org/1999/xlink">
<g id="graph0" class="graph" transform="scale(1 1) rotate(0) translate(4 148)">
<title>G</title>
<polygon fill="white" stroke="transparent" points="-4,4 -4,-148 234.8,-148 234.8,4 -4,4"/>
<text text-anchor="middle" x="115.4" y="-6.8" font-family="Times,serif" font-size="14.00">A</text>
<!-- app -->
<g id="node1" class="node">
<title>app</title>
<polygon fill="yellow" stroke="black" points="54,-144 0,-144 0,-108 54,-108 54,-144"/>
<text text-anchor="middle" x="27" y="-121.8" font-family="Helvetica,sans-Serif" font-size="14.00">app</text>
</g>
<!-- db -->
<g id="node3" class="node">
<title>db</title>
<path fill="lightblue" stroke="black" d="M87,-54.73C87,-56.53 74.9,-58 60,-58 45.1,-58 33,-56.53 33,-54.73 33,-54.73 33,-25.27 33,-25.27 33,-23.47 45.1,-22 60,-22 74.9,-22 87,-23.47 87,-25.27 87,-25.27 87,-54.73 87,-54.73"/>
<path fill="none" stroke="black" d="M87,-54.73C87,-52.92 74.9,-51.45 60,-51.45 45.1,-51.45 33,-52.92 33,-54.73"/>
<text text-anchor="middle" x="60" y="-35.8" font-family="Helvetica,sans-Serif" font-size="14.00">db</text>
</g>
<!-- app&#45;&gt;db -->
<g id="edge1" class="edge">
<title>app&#45;&gt;db</title>
<path fill="none" stroke="black" d="M30.9,-107.91C33.33,-98.35 36.78,-86.32 41,-76 42.19,-73.09 43.56,-70.1 45,-67.16"/>
<polygon fill="black" stroke="black" points="48.22,-68.56 49.76,-58.08 42.02,-65.32 48.22,-68.56"/>
</g>
<!-- app2 -->
<g id="node2" class="node">
<title>app2</title>
<polygon fill="yellow" stroke="black" points="150.03,-144 91.97,-144 91.97,-108 150.03,-108 150.03,-144"/>
<text text-anchor="middle" x="121" y="-121.8" font-family="Helvetica,sans-Serif" font-size="14.00">app v2</text>
</g>
<!-- app2&#45;&gt;db -->
<g id="edge2" class="edge">
<title>app2&#45;&gt;db</title>
<path fill="none" stroke="black" d="M91.83,-115.31C80.09,-109.82 67.72,-101.67 60.88,-90 57.13,-83.62 55.83,-75.91 55.74,-68.52"/>
<polygon fill="black" stroke="black" points="59.24,-68.63 56.3,-58.46 52.25,-68.25 59.24,-68.63"/>
<text text-anchor="middle" x="80.06" y="-78.8" font-family="Helvetica,sans-Serif" font-size="14.00"> insert</text>
</g>
<!-- newdb -->
<g id="node4" class="node">
<title>newdb</title>
<path fill="lightgreen" stroke="black" d="M194.52,-54.73C194.52,-56.53 179.94,-58 162,-58 144.06,-58 129.48,-56.53 129.48,-54.73 129.48,-54.73 129.48,-25.27 129.48,-25.27 129.48,-23.47 144.06,-22 162,-22 179.94,-22 194.52,-23.47 194.52,-25.27 194.52,-25.27 194.52,-54.73 194.52,-54.73"/>
<path fill="none" stroke="black" d="M194.52,-54.73C194.52,-52.92 179.94,-51.45 162,-51.45 144.06,-51.45 129.48,-52.92 129.48,-54.73"/>
<text text-anchor="middle" x="162" y="-35.8" font-family="Helvetica,sans-Serif" font-size="14.00">new DB</text>
</g>
<!-- app2&#45;&gt;newdb -->
<g id="edge4" class="edge">
<title>app2&#45;&gt;newdb</title>
<path fill="none" stroke="black" d="M130.73,-107.69C133.79,-102.09 137.12,-95.82 140,-90 143.53,-82.88 147.14,-75.06 150.4,-67.81"/>
<polygon fill="black" stroke="black" points="153.73,-68.94 154.58,-58.38 147.33,-66.11 153.73,-68.94"/>
<text text-anchor="middle" x="188.4" y="-78.8" font-family="Helvetica,sans-Serif" font-size="14.00"> insert with ID</text>
</g>
<!-- db&#45;&gt;app2 -->
<g id="edge3" class="edge">
<title>db&#45;&gt;app2</title>
<path fill="none" stroke="black" d="M81.43,-57.37C87.64,-62.82 94.06,-69.24 99,-76 103.95,-82.78 108.14,-90.85 111.49,-98.46"/>
<polygon fill="black" stroke="black" points="108.25,-99.8 115.28,-107.73 114.73,-97.15 108.25,-99.8"/>
<text text-anchor="middle" x="116.94" y="-78.8" font-family="Helvetica,sans-Serif" font-size="14.00"> ID</text>
</g>
</g>
</svg>
