<?xml version="1.0" encoding="UTF-8" standalone="no"?>
<!DOCTYPE svg PUBLIC "-//W3C//DTD SVG 1.1//EN"
 "http://www.w3.org/Graphics/SVG/1.1/DTD/svg11.dtd">
<!-- Generated by graphviz version 2.43.0 (0)
 -->
<!-- Title: G Pages: 1 -->
<svg width="310pt" height="152pt"
 viewBox="0.00 0.00 309.51 152.00" xmlns="http://www.w3.org/2000/svg" xmlns:xlink="http://www.w3.org/1999/xlink">
<g id="graph0" class="graph" transform="scale(1 1) rotate(0) translate(4 148)">
<title>G</title>
<polygon fill="white" stroke="transparent" points="-4,4 -4,-148 305.51,-148 305.51,4 -4,4"/>
<text text-anchor="middle" x="150.76" y="-6.8" font-family="Times,serif" font-size="14.00">B</text>
<!-- app -->
<g id="node1" class="node">
<title>app</title>
<polygon fill="yellow" stroke="black" points="54,-144 0,-144 0,-108 54,-108 54,-144"/>
<text text-anchor="middle" x="27" y="-121.8" font-family="Helvetica,sans-Serif" font-size="14.00">app</text>
</g>
<!-- db -->
<g id="node3" class="node">
<title>db</title>
<path fill="lightblue" stroke="black" d="M70,-54.73C70,-56.53 57.9,-58 43,-58 28.1,-58 16,-56.53 16,-54.73 16,-54.73 16,-25.27 16,-25.27 16,-23.47 28.1,-22 43,-22 57.9,-22 70,-23.47 70,-25.27 70,-25.27 70,-54.73 70,-54.73"/>
<path fill="none" stroke="black" d="M70,-54.73C70,-52.92 57.9,-51.45 43,-51.45 28.1,-51.45 16,-52.92 16,-54.73"/>
<text text-anchor="middle" x="43" y="-35.8" font-family="Helvetica,sans-Serif" font-size="14.00">db</text>
</g>
<!-- app&#45;&gt;db -->
<g id="edge1" class="edge">
<title>app&#45;&gt;db</title>
<path fill="none" stroke="black" d="M30.32,-107.6C32.5,-96.14 35.4,-80.93 37.87,-67.93"/>
<polygon fill="black" stroke="black" points="41.31,-68.57 39.74,-58.1 34.43,-67.26 41.31,-68.57"/>
</g>
<!-- app2 -->
<g id="node2" class="node">
<title>app2</title>
<polygon fill="yellow" stroke="black" points="150.03,-144 91.97,-144 91.97,-108 150.03,-108 150.03,-144"/>
<text text-anchor="middle" x="121" y="-121.8" font-family="Helvetica,sans-Serif" font-size="14.00">app v2</text>
</g>
<!-- app2&#45;&gt;db -->
<g id="edge2" class="edge">
<title>app2&#45;&gt;db</title>
<path fill="none" stroke="black" d="M91.73,-113.15C80.81,-107.51 69.09,-99.82 60.88,-90 55.62,-83.72 51.85,-75.77 49.17,-68.11"/>
<polygon fill="black" stroke="black" points="52.47,-66.93 46.24,-58.36 45.77,-68.95 52.47,-66.93"/>
<text text-anchor="middle" x="80.06" y="-78.8" font-family="Helvetica,sans-Serif" font-size="14.00"> insert</text>
</g>
<!-- newdb -->
<g id="node4" class="node">
<title>newdb</title>
<path fill="lightgreen" stroke="black" d="M301.52,-54.73C301.52,-56.53 286.94,-58 269,-58 251.06,-58 236.48,-56.53 236.48,-54.73 236.48,-54.73 236.48,-25.27 236.48,-25.27 236.48,-23.47 251.06,-22 269,-22 286.94,-22 301.52,-23.47 301.52,-25.27 301.52,-25.27 301.52,-54.73 301.52,-54.73"/>
<path fill="none" stroke="black" d="M301.52,-54.73C301.52,-52.92 286.94,-51.45 269,-51.45 251.06,-51.45 236.48,-52.92 236.48,-54.73"/>
<text text-anchor="middle" x="269" y="-35.8" font-family="Helvetica,sans-Serif" font-size="14.00">new DB</text>
</g>
<!-- app2&#45;&gt;newdb -->
<g id="edge4" class="edge">
<title>app2&#45;&gt;newdb</title>
<path fill="none" stroke="black" d="M150.24,-108.4C173.65,-95.12 206.63,-76.4 231.9,-62.06"/>
<polygon fill="black" stroke="black" points="233.86,-64.97 240.82,-56.99 230.4,-58.88 233.86,-64.97"/>
<text text-anchor="middle" x="245.4" y="-78.8" font-family="Helvetica,sans-Serif" font-size="14.00"> insert with ID</text>
</g>
<!-- db&#45;&gt;app2 -->
<g id="edge3" class="edge">
<title>db&#45;&gt;app2</title>
<path fill="none" stroke="black" d="M70.21,-53.7C80.25,-59.41 91.09,-66.93 99,-76 104.6,-82.42 109.01,-90.51 112.36,-98.25"/>
<polygon fill="black" stroke="black" points="109.16,-99.67 116.05,-107.71 115.68,-97.13 109.16,-99.67"/>
<text text-anchor="middle" x="117.94" y="-78.8" font-family="Helvetica,sans-Serif" font-size="14.00"> ID</text>
</g>
<!-- script -->
<g id="node5" class="node">
<title>script</title>
<ellipse fill="none" stroke="black" cx="141" cy="-40" rx="31.47" ry="18"/>
<text text-anchor="middle" x="141" y="-35.8" font-family="Helvetica,sans-Serif" font-size="14.00">script</text>
</g>
<!-- db&#45;&gt;script -->
<g id="edge5" class="edge">
<title>db&#45;&gt;script</title>
<path fill="none" stroke="black" d="M70.04,-40C79.12,-40 89.47,-40 99.41,-40"/>
<polygon fill="black" stroke="black" points="99.54,-43.5 109.54,-40 99.54,-36.5 99.54,-43.5"/>
<text text-anchor="middle" x="89.88" y="-45.8" font-family="Helvetica,sans-Serif" font-size="14.00"> diff</text>
</g>
<!-- script&#45;&gt;newdb -->
<g id="edge6" class="edge">
<title>script&#45;&gt;newdb</title>
<path fill="none" stroke="black" d="M172.31,-40C188.52,-40 208.56,-40 226.18,-40"/>
<polygon fill="black" stroke="black" points="226.23,-43.5 236.23,-40 226.23,-36.5 226.23,-43.5"/>
<text text-anchor="middle" x="204.36" y="-45.8" font-family="Helvetica,sans-Serif" font-size="14.00"> backfill</text>
</g>
</g>
</svg>
