<?xml version="1.0" encoding="UTF-8" standalone="no"?>
<!DOCTYPE svg PUBLIC "-//W3C//DTD SVG 1.1//EN"
 "http://www.w3.org/Graphics/SVG/1.1/DTD/svg11.dtd">
<!-- Generated by graphviz version 2.43.0 (0)
 -->
<!-- Title: G Pages: 1 -->
<svg width="185pt" height="180pt"
 viewBox="0.00 0.00 184.84 179.50" xmlns="http://www.w3.org/2000/svg" xmlns:xlink="http://www.w3.org/1999/xlink">
<g id="graph0" class="graph" transform="scale(1 1) rotate(0) translate(4 175.5)">
<title>G</title>
<polygon fill="white" stroke="transparent" points="-4,4 -4,-175.5 180.84,-175.5 180.84,4 -4,4"/>
<text text-anchor="middle" x="88.42" y="-6.8" font-family="Times,serif" font-size="14.00">C</text>
<!-- app -->
<g id="node1" class="node">
<title>app</title>
<polygon fill="lightgray" stroke="black" points="54,-171.5 0,-171.5 0,-135.5 54,-135.5 54,-171.5"/>
<text text-anchor="middle" x="27" y="-149.3" font-family="Helvetica,sans-Serif" font-size="14.00">app</text>
</g>
<!-- app2 -->
<g id="node2" class="node">
<title>app2</title>
<polygon fill="yellow" stroke="black" points="130.03,-171.5 71.97,-171.5 71.97,-135.5 130.03,-135.5 130.03,-171.5"/>
<text text-anchor="middle" x="101" y="-149.3" font-family="Helvetica,sans-Serif" font-size="14.00">app v2</text>
</g>
<!-- db -->
<g id="node3" class="node">
<title>db</title>
<path fill="lightblue" stroke="black" d="M78,-61.48C78,-63.28 65.9,-64.75 51,-64.75 36.1,-64.75 24,-63.28 24,-61.48 24,-61.48 24,-32.02 24,-32.02 24,-30.22 36.1,-28.75 51,-28.75 65.9,-28.75 78,-30.22 78,-32.02 78,-32.02 78,-61.48 78,-61.48"/>
<path fill="none" stroke="black" d="M78,-61.48C78,-59.67 65.9,-58.2 51,-58.2 36.1,-58.2 24,-59.67 24,-61.48"/>
<text text-anchor="middle" x="51" y="-42.55" font-family="Helvetica,sans-Serif" font-size="14.00">db</text>
</g>
<!-- app2&#45;&gt;db -->
<g id="edge1" class="edge">
<title>app2&#45;&gt;db</title>
<path fill="none" stroke="black" d="M71.84,-139.02C58.38,-132.14 44.55,-123.89 40.88,-117.5 33.49,-104.65 35.36,-88.35 39.38,-74.73"/>
<polygon fill="black" stroke="black" points="42.8,-75.54 42.75,-64.95 36.18,-73.26 42.8,-75.54"/>
<text text-anchor="middle" x="60.06" y="-99.3" font-family="Helvetica,sans-Serif" font-size="14.00"> insert</text>
</g>
<!-- newdb -->
<g id="node4" class="node">
<title>newdb</title>
<path fill="lightgreen" stroke="black" d="M176.68,-66.8C176.68,-69.26 161.14,-71.25 142,-71.25 122.86,-71.25 107.32,-69.26 107.32,-66.8 107.32,-66.8 107.32,-26.7 107.32,-26.7 107.32,-24.24 122.86,-22.25 142,-22.25 161.14,-22.25 176.68,-24.24 176.68,-26.7 176.68,-26.7 176.68,-66.8 176.68,-66.8"/>
<path fill="none" stroke="black" d="M176.68,-66.8C176.68,-64.34 161.14,-62.34 142,-62.34 122.86,-62.34 107.32,-64.34 107.32,-66.8"/>
<text text-anchor="middle" x="142" y="-49.55" font-family="Helvetica,sans-Serif" font-size="14.00">new DB</text>
<text text-anchor="middle" x="142" y="-35.55" font-family="Helvetica,sans-Serif" font-size="14.00">(synced)</text>
</g>
<!-- app2&#45;&gt;newdb -->
<g id="edge3" class="edge">
<title>app2&#45;&gt;newdb</title>
<path fill="none" stroke="black" d="M111.15,-135.38C114.22,-129.79 117.46,-123.48 120,-117.5 124.91,-105.93 129.31,-92.88 132.87,-81.22"/>
<polygon fill="black" stroke="black" points="136.29,-81.99 135.76,-71.4 129.58,-80.01 136.29,-81.99"/>
<text text-anchor="middle" x="150.39" y="-106.3" font-family="Helvetica,sans-Serif" font-size="14.00"> insert</text>
<text text-anchor="middle" x="150.39" y="-92.3" font-family="Helvetica,sans-Serif" font-size="14.00">with ID</text>
</g>
<!-- db&#45;&gt;app2 -->
<g id="edge2" class="edge">
<title>db&#45;&gt;app2</title>
<path fill="none" stroke="black" d="M64.03,-65.02C69.15,-72.32 74.79,-81.07 79,-89.5 84.71,-100.93 89.58,-114.2 93.28,-125.6"/>
<polygon fill="black" stroke="black" points="90.03,-126.93 96.33,-135.44 96.71,-124.86 90.03,-126.93"/>
<text text-anchor="middle" x="98.94" y="-99.3" font-family="Helvetica,sans-Serif" font-size="14.00"> ID</text>
</g>
</g>
</svg>
