<?xml version="1.0" encoding="UTF-8" standalone="no"?>
<!DOCTYPE svg PUBLIC "-//W3C//DTD SVG 1.1//EN"
 "http://www.w3.org/Graphics/SVG/1.1/DTD/svg11.dtd">
<!-- Generated by graphviz version 2.43.0 (0)
 -->
<!-- Title: G Pages: 1 -->
<svg width="200pt" height="180pt"
 viewBox="0.00 0.00 199.84 179.50" xmlns="http://www.w3.org/2000/svg" xmlns:xlink="http://www.w3.org/1999/xlink">
<g id="graph0" class="graph" transform="scale(1 1) rotate(0) translate(4 175.5)">
<title>G</title>
<polygon fill="white" stroke="transparent" points="-4,4 -4,-175.5 195.84,-175.5 195.84,4 -4,4"/>
<text text-anchor="middle" x="95.92" y="-6.8" font-family="Times,serif" font-size="14.00">D</text>
<!-- app2 -->
<g id="node1" class="node">
<title>app2</title>
<polygon fill="yellow" stroke="black" points="92.86,-171.5 34.79,-171.5 34.79,-135.5 92.86,-135.5 92.86,-171.5"/>
<text text-anchor="middle" x="63.82" y="-149.3" font-family="Helvetica,sans-Serif" font-size="14.00">app v2</text>
</g>
<!-- db -->
<g id="node3" class="node">
<title>db</title>
<path fill="lightblue" stroke="black" d="M65.82,-61.48C65.82,-63.28 53.72,-64.75 38.82,-64.75 23.93,-64.75 11.82,-63.28 11.82,-61.48 11.82,-61.48 11.82,-32.02 11.82,-32.02 11.82,-30.22 23.93,-28.75 38.82,-28.75 53.72,-28.75 65.82,-30.22 65.82,-32.02 65.82,-32.02 65.82,-61.48 65.82,-61.48"/>
<path fill="none" stroke="black" d="M65.82,-61.48C65.82,-59.67 53.72,-58.2 38.82,-58.2 23.93,-58.2 11.82,-59.67 11.82,-61.48"/>
<text text-anchor="middle" x="38.82" y="-42.55" font-family="Helvetica,sans-Serif" font-size="14.00">db</text>
</g>
<!-- app2&#45;&gt;db -->
<g id="edge1" class="edge">
<title>app2&#45;&gt;db</title>
<path fill="none" stroke="black" d="M34.56,-142.87C22.79,-137.39 10.44,-129.23 3.7,-117.5 -4.69,-102.9 3.33,-86.05 13.81,-72.56"/>
<polygon fill="black" stroke="black" points="16.72,-74.54 20.53,-64.65 11.39,-70.01 16.72,-74.54"/>
<text text-anchor="middle" x="22.89" y="-99.3" font-family="Helvetica,sans-Serif" font-size="14.00"> insert</text>
</g>
<!-- newdb -->
<g id="node4" class="node">
<title>newdb</title>
<path fill="lightgreen" stroke="black" d="M164.51,-66.8C164.51,-69.26 148.96,-71.25 129.82,-71.25 110.69,-71.25 95.14,-69.26 95.14,-66.8 95.14,-66.8 95.14,-26.7 95.14,-26.7 95.14,-24.24 110.69,-22.25 129.82,-22.25 148.96,-22.25 164.51,-24.24 164.51,-26.7 164.51,-26.7 164.51,-66.8 164.51,-66.8"/>
<path fill="none" stroke="black" d="M164.51,-66.8C164.51,-64.34 148.96,-62.34 129.82,-62.34 110.69,-62.34 95.14,-64.34 95.14,-66.8"/>
<text text-anchor="middle" x="129.82" y="-49.55" font-family="Helvetica,sans-Serif" font-size="14.00">new DB</text>
<text text-anchor="middle" x="129.82" y="-35.55" font-family="Helvetica,sans-Serif" font-size="14.00">(synced)</text>
</g>
<!-- app2&#45;&gt;newdb -->
<g id="edge3" class="edge">
<title>app2&#45;&gt;newdb</title>
<path fill="none" stroke="black" d="M74.01,-135.27C81.6,-122.54 92.29,-104.83 102.04,-89.5 104.02,-86.38 106.12,-83.14 108.22,-79.91"/>
<polygon fill="black" stroke="black" points="111.2,-81.76 113.78,-71.48 105.36,-77.9 111.2,-81.76"/>
<text text-anchor="middle" x="124.22" y="-106.3" font-family="Helvetica,sans-Serif" font-size="14.00"> insert</text>
<text text-anchor="middle" x="124.22" y="-92.3" font-family="Helvetica,sans-Serif" font-size="14.00">with ID</text>
</g>
<!-- app3 -->
<g id="node2" class="node">
<title>app3</title>
<polygon fill="yellow" stroke="black" points="191.86,-171.5 133.79,-171.5 133.79,-135.5 191.86,-135.5 191.86,-171.5"/>
<text text-anchor="middle" x="162.82" y="-149.3" font-family="Helvetica,sans-Serif" font-size="14.00">app v3</text>
</g>
<!-- app3&#45;&gt;newdb -->
<g id="edge4" class="edge">
<title>app3&#45;&gt;newdb</title>
<path fill="none" stroke="black" d="M160.02,-135.39C157.68,-122.57 153.91,-104.69 148.82,-89.5 147.9,-86.74 146.85,-83.91 145.74,-81.1"/>
<polygon fill="black" stroke="black" points="148.87,-79.53 141.75,-71.69 142.43,-82.26 148.87,-79.53"/>
</g>
<!-- db&#45;&gt;app2 -->
<g id="edge2" class="edge">
<title>db&#45;&gt;app2</title>
<path fill="none" stroke="black" d="M42.96,-65.07C46.87,-81.46 52.8,-106.3 57.34,-125.32"/>
<polygon fill="black" stroke="black" points="53.97,-126.29 59.7,-135.2 60.78,-124.66 53.97,-126.29"/>
<text text-anchor="middle" x="64.77" y="-99.3" font-family="Helvetica,sans-Serif" font-size="14.00"> ID</text>
</g>
</g>
</svg>
