<?xml version="1.0" encoding="UTF-8" standalone="no"?>
<!DOCTYPE svg PUBLIC "-//W3C//DTD SVG 1.1//EN"
 "http://www.w3.org/Graphics/SVG/1.1/DTD/svg11.dtd">
<!-- Generated by graphviz version 2.43.0 (0)
 -->
<!-- Title: G Pages: 1 -->
<svg width="148pt" height="138pt"
 viewBox="0.00 0.00 147.53 138.00" xmlns="http://www.w3.org/2000/svg" xmlns:xlink="http://www.w3.org/1999/xlink">
<g id="graph0" class="graph" transform="scale(1 1) rotate(0) translate(4 134)">
<title>G</title>
<polygon fill="white" stroke="transparent" points="-4,4 -4,-134 143.53,-134 143.53,4 -4,4"/>
<text text-anchor="middle" x="69.76" y="-6.8" font-family="Times,serif" font-size="14.00">E</text>
<!-- app2 -->
<g id="node1" class="node">
<title>app2</title>
<polygon fill="lightgray" stroke="black" points="58.05,-130 -0.02,-130 -0.02,-94 58.05,-94 58.05,-130"/>
<text text-anchor="middle" x="29.02" y="-107.8" font-family="Helvetica,sans-Serif" font-size="14.00">app v2</text>
</g>
<!-- db -->
<g id="node3" class="node">
<title>db</title>
<path fill="lightgray" stroke="black" d="M56.02,-54.73C56.02,-56.53 43.92,-58 29.02,-58 14.12,-58 2.02,-56.53 2.02,-54.73 2.02,-54.73 2.02,-25.27 2.02,-25.27 2.02,-23.47 14.12,-22 29.02,-22 43.92,-22 56.02,-23.47 56.02,-25.27 56.02,-25.27 56.02,-54.73 56.02,-54.73"/>
<path fill="none" stroke="black" d="M56.02,-54.73C56.02,-52.92 43.92,-51.45 29.02,-51.45 14.12,-51.45 2.02,-52.92 2.02,-54.73"/>
<text text-anchor="middle" x="29.02" y="-35.8" font-family="Helvetica,sans-Serif" font-size="14.00">db</text>
</g>
<!-- app2&#45;&gt;db -->
<!-- app3 -->
<g id="node2" class="node">
<title>app3</title>
<polygon fill="yellow" stroke="black" points="136.05,-130 77.98,-130 77.98,-94 136.05,-94 136.05,-130"/>
<text text-anchor="middle" x="107.02" y="-107.8" font-family="Helvetica,sans-Serif" font-size="14.00">app v3</text>
</g>
<!-- newdb -->
<g id="node4" class="node">
<title>newdb</title>
<path fill="lightgreen" stroke="black" d="M139.54,-54.73C139.54,-56.53 124.96,-58 107.02,-58 89.07,-58 74.5,-56.53 74.5,-54.73 74.5,-54.73 74.5,-25.27 74.5,-25.27 74.5,-23.47 89.07,-22 107.02,-22 124.96,-22 139.54,-23.47 139.54,-25.27 139.54,-25.27 139.54,-54.73 139.54,-54.73"/>
<path fill="none" stroke="black" d="M139.54,-54.73C139.54,-52.92 124.96,-51.45 107.02,-51.45 89.07,-51.45 74.5,-52.92 74.5,-54.73"/>
<text text-anchor="middle" x="107.02" y="-35.8" font-family="Helvetica,sans-Serif" font-size="14.00">new DB</text>
</g>
<!-- app3&#45;&gt;newdb -->
<g id="edge2" class="edge">
<title>app3&#45;&gt;newdb</title>
<path fill="none" stroke="black" d="M107.02,-93.7C107.02,-85.98 107.02,-76.71 107.02,-68.11"/>
<polygon fill="black" stroke="black" points="110.52,-68.1 107.02,-58.1 103.52,-68.1 110.52,-68.1"/>
</g>
</g>
</svg>
