<?xml version="1.0" encoding="UTF-8" standalone="no"?>
<!DOCTYPE svg PUBLIC "-//W3C//DTD SVG 1.1//EN"
 "http://www.w3.org/Graphics/SVG/1.1/DTD/svg11.dtd">
<!-- Generated by graphviz version 2.43.0 (0)
 -->
<!-- Title: G Pages: 1 -->
<svg width="328pt" height="166pt"
 viewBox="0.00 0.00 327.51 166.00" xmlns="http://www.w3.org/2000/svg" xmlns:xlink="http://www.w3.org/1999/xlink">
<g id="graph0" class="graph" transform="scale(1 1) rotate(0) translate(4 162)">
<title>G</title>
<polygon fill="white" stroke="transparent" points="-4,4 -4,-162 323.51,-162 323.51,4 -4,4"/>
<text text-anchor="middle" x="159.76" y="-6.8" font-family="Times,serif" font-size="14.00">A</text>
<!-- app -->
<g id="node1" class="node">
<title>app</title>
<polygon fill="yellow" stroke="black" points="54,-158 0,-158 0,-122 54,-122 54,-158"/>
<text text-anchor="middle" x="27" y="-135.8" font-family="Helvetica,sans-Serif" font-size="14.00">apps</text>
</g>
<!-- db -->
<g id="node3" class="node">
<title>db</title>
<path fill="lightblue" stroke="black" d="M70,-54.73C70,-56.53 57.9,-58 43,-58 28.1,-58 16,-56.53 16,-54.73 16,-54.73 16,-25.27 16,-25.27 16,-23.47 28.1,-22 43,-22 57.9,-22 70,-23.47 70,-25.27 70,-25.27 70,-54.73 70,-54.73"/>
<path fill="none" stroke="black" d="M70,-54.73C70,-52.92 57.9,-51.45 43,-51.45 28.1,-51.45 16,-52.92 16,-54.73"/>
<text text-anchor="middle" x="43" y="-35.8" font-family="Helvetica,sans-Serif" font-size="14.00">db</text>
</g>
<!-- app&#45;&gt;db -->
<g id="edge1" class="edge">
<title>app&#45;&gt;db</title>
<path fill="none" stroke="black" d="M29.79,-121.93C32.2,-107.12 35.75,-85.43 38.55,-68.23"/>
<polygon fill="black" stroke="black" points="42.03,-68.64 40.19,-58.2 35.13,-67.51 42.03,-68.64"/>
</g>
<!-- app2 -->
<g id="node2" class="node">
<title>app2</title>
<polygon fill="yellow" stroke="black" points="153.53,-158 88.47,-158 88.47,-122 153.53,-122 153.53,-158"/>
<text text-anchor="middle" x="121" y="-135.8" font-family="Helvetica,sans-Serif" font-size="14.00">apps v2</text>
</g>
<!-- app2&#45;&gt;db -->
<g id="edge2" class="edge">
<title>app2&#45;&gt;db</title>
<path fill="none" stroke="black" d="M88.23,-125.81C78.22,-120.37 67.99,-113.16 60.88,-104 52.9,-93.72 48.48,-80.04 46.03,-68.05"/>
<polygon fill="black" stroke="black" points="49.47,-67.36 44.35,-58.08 42.56,-68.52 49.47,-67.36"/>
<text text-anchor="middle" x="80.06" y="-85.8" font-family="Helvetica,sans-Serif" font-size="14.00"> insert</text>
</g>
<!-- newdb -->
<g id="node4" class="node">
<title>newdb</title>
<path fill="lightgreen" stroke="black" d="M319.52,-54.73C319.52,-56.53 304.94,-58 287,-58 269.06,-58 254.48,-56.53 254.48,-54.73 254.48,-54.73 254.48,-25.27 254.48,-25.27 254.48,-23.47 269.06,-22 287,-22 304.94,-22 319.52,-23.47 319.52,-25.27 319.52,-25.27 319.52,-54.73 319.52,-54.73"/>
<path fill="none" stroke="black" d="M319.52,-54.73C319.52,-52.92 304.94,-51.45 287,-51.45 269.06,-51.45 254.48,-52.92 254.48,-54.73"/>
<text text-anchor="middle" x="287" y="-35.8" font-family="Helvetica,sans-Serif" font-size="14.00">new DB</text>
</g>
<!-- app2&#45;&gt;newdb -->
<g id="edge4" class="edge">
<title>app2&#45;&gt;newdb</title>
<path fill="none" stroke="black" d="M149.91,-121.93C177.86,-105.43 220.3,-80.37 250.55,-62.52"/>
<polygon fill="black" stroke="black" points="252.69,-65.32 259.52,-57.22 249.13,-59.29 252.69,-65.32"/>
<text text-anchor="middle" x="244.39" y="-92.8" font-family="Helvetica,sans-Serif" font-size="14.00"> insert</text>
<text text-anchor="middle" x="244.39" y="-78.8" font-family="Helvetica,sans-Serif" font-size="14.00">with ID</text>
</g>
<!-- db&#45;&gt;app2 -->
<g id="edge3" class="edge">
<title>db&#45;&gt;app2</title>
<path fill="none" stroke="black" d="M70.05,-53.03C80.3,-58.73 91.34,-66.42 99,-76 107.28,-86.36 112.55,-100.05 115.85,-112.02"/>
<polygon fill="black" stroke="black" points="112.51,-113.09 118.27,-121.98 119.31,-111.43 112.51,-113.09"/>
<text text-anchor="middle" x="122.94" y="-85.8" font-family="Helvetica,sans-Serif" font-size="14.00"> ID</text>
</g>
<!-- script -->
<g id="node5" class="node">
<title>script</title>
<ellipse fill="none" stroke="black" cx="141" cy="-40" rx="31.47" ry="18"/>
<text text-anchor="middle" x="141" y="-35.8" font-family="Helvetica,sans-Serif" font-size="14.00">script</text>
</g>
<!-- db&#45;&gt;script -->
<g id="edge5" class="edge">
<title>db&#45;&gt;script</title>
<path fill="none" stroke="black" d="M70.04,-40C79.12,-40 89.47,-40 99.41,-40"/>
<polygon fill="black" stroke="black" points="99.54,-43.5 109.54,-40 99.54,-36.5 99.54,-43.5"/>
<text text-anchor="middle" x="89.88" y="-45.8" font-family="Helvetica,sans-Serif" font-size="14.00"> diff</text>
</g>
<!-- script&#45;&gt;newdb -->
<g id="edge6" class="edge">
<title>script&#45;&gt;newdb</title>
<path fill="none" stroke="black" d="M172.32,-40C193.32,-40 221.24,-40 244.27,-40"/>
<polygon fill="black" stroke="black" points="244.47,-43.5 254.47,-40 244.47,-36.5 244.47,-43.5"/>
<text text-anchor="middle" x="213.36" y="-45.8" font-family="Helvetica,sans-Serif" font-size="14.00">delete gap</text>
<text text-anchor="middle" x="197.61" y="-28.8" font-family="Helvetica,sans-Serif" font-size="14.00"> &#160;backfill</text>
</g>
</g>
</svg>
