<?xml version="1.0" encoding="UTF-8" standalone="no"?>
<!DOCTYPE svg PUBLIC "-//W3C//DTD SVG 1.1//EN"
 "http://www.w3.org/Graphics/SVG/1.1/DTD/svg11.dtd">
<!-- Generated by graphviz version 2.43.0 (0)
 -->
<!-- Title: G Pages: 1 -->
<svg width="266pt" height="166pt"
 viewBox="0.00 0.00 265.56 165.50" xmlns="http://www.w3.org/2000/svg" xmlns:xlink="http://www.w3.org/1999/xlink">
<g id="graph0" class="graph" transform="scale(1 1) rotate(0) translate(4 161.5)">
<title>G</title>
<polygon fill="white" stroke="transparent" points="-4,4 -4,-161.5 261.56,-161.5 261.56,4 -4,4"/>
<text text-anchor="middle" x="128.78" y="-6.8" font-family="Times,serif" font-size="14.00">B</text>
<!-- app -->
<g id="node1" class="node">
<title>app</title>
<polygon fill="lightgray" stroke="black" points="54,-157.5 0,-157.5 0,-121.5 54,-121.5 54,-157.5"/>
<text text-anchor="middle" x="27" y="-135.3" font-family="Helvetica,sans-Serif" font-size="14.00">apps</text>
</g>
<!-- app2 -->
<g id="node2" class="node">
<title>app2</title>
<polygon fill="yellow" stroke="black" points="137.53,-157.5 72.47,-157.5 72.47,-121.5 137.53,-121.5 137.53,-157.5"/>
<text text-anchor="middle" x="105" y="-135.3" font-family="Helvetica,sans-Serif" font-size="14.00">apps v2</text>
</g>
<!-- app3 -->
<g id="node3" class="node">
<title>app3</title>
<polygon fill="yellow" stroke="black" points="238.53,-157.5 173.47,-157.5 173.47,-121.5 238.53,-121.5 238.53,-157.5"/>
<text text-anchor="middle" x="206" y="-135.3" font-family="Helvetica,sans-Serif" font-size="14.00">apps v3</text>
</g>
<!-- app2&#45;&gt;app3 -->
<!-- db -->
<g id="node4" class="node">
<title>db</title>
<path fill="lightblue" stroke="black" d="M146.68,-66.8C146.68,-69.26 131.14,-71.25 112,-71.25 92.86,-71.25 77.32,-69.26 77.32,-66.8 77.32,-66.8 77.32,-26.7 77.32,-26.7 77.32,-24.24 92.86,-22.25 112,-22.25 131.14,-22.25 146.68,-24.24 146.68,-26.7 146.68,-26.7 146.68,-66.8 146.68,-66.8"/>
<path fill="none" stroke="black" d="M146.68,-66.8C146.68,-64.34 131.14,-62.34 112,-62.34 92.86,-62.34 77.32,-64.34 77.32,-66.8"/>
<text text-anchor="middle" x="112" y="-49.55" font-family="Helvetica,sans-Serif" font-size="14.00">db</text>
<text text-anchor="middle" x="112" y="-35.55" font-family="Helvetica,sans-Serif" font-size="14.00">(synced)</text>
</g>
<!-- app2&#45;&gt;db -->
<g id="edge1" class="edge">
<title>app2&#45;&gt;db</title>
<path fill="none" stroke="black" d="M98.39,-121.27C95.6,-111.88 93.42,-100.06 95.44,-89.5 95.96,-86.79 96.65,-84.04 97.45,-81.3"/>
<polygon fill="black" stroke="black" points="100.86,-82.16 100.77,-71.57 94.23,-79.9 100.86,-82.16"/>
<text text-anchor="middle" x="121.28" y="-92.3" font-family="Helvetica,sans-Serif" font-size="14.00"> primary</text>
</g>
<!-- newdb -->
<g id="node5" class="node">
<title>newdb</title>
<path fill="lightgreen" stroke="black" d="M243.68,-66.8C243.68,-69.26 228.14,-71.25 209,-71.25 189.86,-71.25 174.32,-69.26 174.32,-66.8 174.32,-66.8 174.32,-26.7 174.32,-26.7 174.32,-24.24 189.86,-22.25 209,-22.25 228.14,-22.25 243.68,-24.24 243.68,-26.7 243.68,-26.7 243.68,-66.8 243.68,-66.8"/>
<path fill="none" stroke="black" d="M243.68,-66.8C243.68,-64.34 228.14,-62.34 209,-62.34 189.86,-62.34 174.32,-64.34 174.32,-66.8"/>
<text text-anchor="middle" x="209" y="-49.55" font-family="Helvetica,sans-Serif" font-size="14.00">new DB</text>
<text text-anchor="middle" x="209" y="-35.55" font-family="Helvetica,sans-Serif" font-size="14.00">(synced)</text>
</g>
<!-- app2&#45;&gt;newdb -->
<g id="edge2" class="edge">
<title>app2&#45;&gt;newdb</title>
<path fill="none" stroke="black" d="M125.08,-121.48C131.76,-115.79 139.22,-109.39 146,-103.5 155.65,-95.12 166.06,-85.95 175.58,-77.52"/>
<polygon fill="black" stroke="black" points="178.18,-79.89 183.34,-70.64 173.54,-74.65 178.18,-79.89"/>
</g>
<!-- app3&#45;&gt;db -->
<g id="edge4" class="edge">
<title>app3&#45;&gt;db</title>
<path fill="none" stroke="black" d="M188.32,-121.43C175.73,-109.28 158.47,-92.61 143.54,-78.2"/>
<polygon fill="black" stroke="black" points="145.61,-75.34 135.99,-70.91 140.75,-80.37 145.61,-75.34"/>
</g>
<!-- app3&#45;&gt;newdb -->
<g id="edge3" class="edge">
<title>app3&#45;&gt;newdb</title>
<path fill="none" stroke="black" d="M206.56,-121.43C206.93,-110.22 207.43,-95.17 207.88,-81.6"/>
<polygon fill="black" stroke="black" points="211.38,-81.7 208.21,-71.59 204.38,-81.47 211.38,-81.7"/>
<text text-anchor="middle" x="232.28" y="-92.3" font-family="Helvetica,sans-Serif" font-size="14.00"> primary</text>
</g>
</g>
</svg>
