<?xml version="1.0" encoding="UTF-8" standalone="no"?>
<!DOCTYPE svg PUBLIC "-//W3C//DTD SVG 1.1//EN"
 "http://www.w3.org/Graphics/SVG/1.1/DTD/svg11.dtd">
<!-- Generated by graphviz version 2.43.0 (0)
 -->
<!-- Title: G Pages: 1 -->
<svg width="320pt" height="166pt"
 viewBox="0.00 0.00 319.52 165.50" xmlns="http://www.w3.org/2000/svg" xmlns:xlink="http://www.w3.org/1999/xlink">
<g id="graph0" class="graph" transform="scale(1 1) rotate(0) translate(4 161.5)">
<title>G</title>
<polygon fill="white" stroke="transparent" points="-4,4 -4,-161.5 315.52,-161.5 315.52,4 -4,4"/>
<text text-anchor="middle" x="155.76" y="-6.8" font-family="Times,serif" font-size="14.00">C</text>
<!-- app -->
<g id="node1" class="node">
<title>app</title>
<polygon fill="lightgray" stroke="black" points="54,-157.5 0,-157.5 0,-121.5 54,-121.5 54,-157.5"/>
<text text-anchor="middle" x="27" y="-135.3" font-family="Helvetica,sans-Serif" font-size="14.00">apps</text>
</g>
<!-- app2 -->
<g id="node2" class="node">
<title>app2</title>
<polygon fill="lightgray" stroke="black" points="137.53,-157.5 72.47,-157.5 72.47,-121.5 137.53,-121.5 137.53,-157.5"/>
<text text-anchor="middle" x="105" y="-135.3" font-family="Helvetica,sans-Serif" font-size="14.00">apps v2</text>
</g>
<!-- app3 -->
<g id="node3" class="node">
<title>app3</title>
<polygon fill="yellow" stroke="black" points="220.53,-157.5 155.47,-157.5 155.47,-121.5 220.53,-121.5 220.53,-157.5"/>
<text text-anchor="middle" x="188" y="-135.3" font-family="Helvetica,sans-Serif" font-size="14.00">apps v3</text>
</g>
<!-- db -->
<g id="node5" class="node">
<title>db</title>
<path fill="lightblue" stroke="black" d="M207,-61.48C207,-63.28 194.9,-64.75 180,-64.75 165.1,-64.75 153,-63.28 153,-61.48 153,-61.48 153,-32.02 153,-32.02 153,-30.22 165.1,-28.75 180,-28.75 194.9,-28.75 207,-30.22 207,-32.02 207,-32.02 207,-61.48 207,-61.48"/>
<path fill="none" stroke="black" d="M207,-61.48C207,-59.67 194.9,-58.2 180,-58.2 165.1,-58.2 153,-59.67 153,-61.48"/>
<text text-anchor="middle" x="180" y="-42.55" font-family="Helvetica,sans-Serif" font-size="14.00">db</text>
</g>
<!-- app3&#45;&gt;db -->
<g id="edge2" class="edge">
<title>app3&#45;&gt;db</title>
<path fill="none" stroke="black" d="M186.5,-121.43C185.35,-108.46 183.75,-90.34 182.43,-75.32"/>
<polygon fill="black" stroke="black" points="185.89,-74.71 181.53,-65.05 178.92,-75.32 185.89,-74.71"/>
</g>
<!-- newdb -->
<g id="node6" class="node">
<title>newdb</title>
<path fill="lightgreen" stroke="black" d="M303.68,-66.8C303.68,-69.26 288.14,-71.25 269,-71.25 249.86,-71.25 234.32,-69.26 234.32,-66.8 234.32,-66.8 234.32,-26.7 234.32,-26.7 234.32,-24.24 249.86,-22.25 269,-22.25 288.14,-22.25 303.68,-24.24 303.68,-26.7 303.68,-26.7 303.68,-66.8 303.68,-66.8"/>
<path fill="none" stroke="black" d="M303.68,-66.8C303.68,-64.34 288.14,-62.34 269,-62.34 249.86,-62.34 234.32,-64.34 234.32,-66.8"/>
<text text-anchor="middle" x="269" y="-49.55" font-family="Helvetica,sans-Serif" font-size="14.00">new DB</text>
<text text-anchor="middle" x="269" y="-35.55" font-family="Helvetica,sans-Serif" font-size="14.00">(synced)</text>
</g>
<!-- app3&#45;&gt;newdb -->
<g id="edge1" class="edge">
<title>app3&#45;&gt;newdb</title>
<path fill="none" stroke="black" d="M196.89,-121.24C202.4,-111.4 210.01,-99.15 218.44,-89.5 222.33,-85.05 226.72,-80.69 231.24,-76.57"/>
<polygon fill="black" stroke="black" points="233.69,-79.08 238.93,-69.87 229.09,-73.8 233.69,-79.08"/>
<text text-anchor="middle" x="244.28" y="-92.3" font-family="Helvetica,sans-Serif" font-size="14.00"> primary</text>
</g>
<!-- app4 -->
<g id="node4" class="node">
<title>app4</title>
<polygon fill="yellow" stroke="black" points="311.53,-157.5 246.47,-157.5 246.47,-121.5 311.53,-121.5 311.53,-157.5"/>
<text text-anchor="middle" x="279" y="-135.3" font-family="Helvetica,sans-Serif" font-size="14.00">apps v4</text>
</g>
<!-- app4&#45;&gt;newdb -->
<g id="edge3" class="edge">
<title>app4&#45;&gt;newdb</title>
<path fill="none" stroke="black" d="M277.12,-121.43C275.88,-110.22 274.23,-95.17 272.73,-81.6"/>
<polygon fill="black" stroke="black" points="276.2,-81.15 271.63,-71.59 269.24,-81.91 276.2,-81.15"/>
</g>
</g>
</svg>
