<?xml version="1.0" encoding="UTF-8" standalone="no"?>
<!DOCTYPE svg PUBLIC "-//W3C//DTD SVG 1.1//EN"
 "http://www.w3.org/Graphics/SVG/1.1/DTD/svg11.dtd">
<!-- Generated by graphviz version 2.43.0 (0)
 -->
<!-- Title: G Pages: 1 -->
<svg width="156pt" height="138pt"
 viewBox="0.00 0.00 156.03 138.00" xmlns="http://www.w3.org/2000/svg" xmlns:xlink="http://www.w3.org/1999/xlink">
<g id="graph0" class="graph" transform="scale(1 1) rotate(0) translate(4 134)">
<title>G</title>
<polygon fill="white" stroke="transparent" points="-4,4 -4,-134 152.03,-134 152.03,4 -4,4"/>
<text text-anchor="middle" x="74.02" y="-6.8" font-family="Times,serif" font-size="14.00">D</text>
<!-- app3 -->
<g id="node1" class="node">
<title>app3</title>
<polygon fill="lightgray" stroke="black" points="65.05,-130 -0.02,-130 -0.02,-94 65.05,-94 65.05,-130"/>
<text text-anchor="middle" x="32.52" y="-107.8" font-family="Helvetica,sans-Serif" font-size="14.00">apps v3</text>
</g>
<!-- app4 -->
<g id="node2" class="node">
<title>app4</title>
<polygon fill="yellow" stroke="black" points="148.05,-130 82.98,-130 82.98,-94 148.05,-94 148.05,-130"/>
<text text-anchor="middle" x="115.52" y="-107.8" font-family="Helvetica,sans-Serif" font-size="14.00">apps v4</text>
</g>
<!-- newdb -->
<g id="node4" class="node">
<title>newdb</title>
<path fill="lightgreen" stroke="black" d="M148.04,-54.73C148.04,-56.53 133.46,-58 115.52,-58 97.57,-58 83,-56.53 83,-54.73 83,-54.73 83,-25.27 83,-25.27 83,-23.47 97.57,-22 115.52,-22 133.46,-22 148.04,-23.47 148.04,-25.27 148.04,-25.27 148.04,-54.73 148.04,-54.73"/>
<path fill="none" stroke="black" d="M148.04,-54.73C148.04,-52.92 133.46,-51.45 115.52,-51.45 97.57,-51.45 83,-52.92 83,-54.73"/>
<text text-anchor="middle" x="115.52" y="-35.8" font-family="Helvetica,sans-Serif" font-size="14.00">new DB</text>
</g>
<!-- app4&#45;&gt;newdb -->
<g id="edge1" class="edge">
<title>app4&#45;&gt;newdb</title>
<path fill="none" stroke="black" d="M115.52,-93.7C115.52,-85.98 115.52,-76.71 115.52,-68.11"/>
<polygon fill="black" stroke="black" points="119.02,-68.1 115.52,-58.1 112.02,-68.1 119.02,-68.1"/>
</g>
<!-- db -->
<g id="node3" class="node">
<title>db</title>
<path fill="lightgray" stroke="black" d="M64.52,-54.73C64.52,-56.53 52.42,-58 37.52,-58 22.62,-58 10.52,-56.53 10.52,-54.73 10.52,-54.73 10.52,-25.27 10.52,-25.27 10.52,-23.47 22.62,-22 37.52,-22 52.42,-22 64.52,-23.47 64.52,-25.27 64.52,-25.27 64.52,-54.73 64.52,-54.73"/>
<path fill="none" stroke="black" d="M64.52,-54.73C64.52,-52.92 52.42,-51.45 37.52,-51.45 22.62,-51.45 10.52,-52.92 10.52,-54.73"/>
<text text-anchor="middle" x="37.52" y="-35.8" font-family="Helvetica,sans-Serif" font-size="14.00">db</text>
</g>
<!-- db&#45;&gt;newdb -->
</g>
</svg>
